# AST/ASF file generated using VICON BodyLanguage
# -----------------------------------------------
:version 1.10
:name VICON
:units
  mass 1.0
  length 0.45
  angle deg
:documentation
   .ast/.asf automatically generated from VICON data using
   VICON BodyBuilder and BodyLanguage model FoxedUp or BRILLIANT.MOD
:root
   order TX TY TZ RX RY RZ
   axis XYZ
   position 0 0 0  
   orientation 0 0 0 
:bonedata
  begin
     id 1 
     name lhipjoint
     direction 0.535335 -0.74333 0.401095 
     length 2.04549 
     axis 0 0 0  XYZ
  end
  begin
     id 2 
     name lfemur
     direction 0.34202 -0.939693 0  
     length 6.95643  
     axis 0 0 20  XYZ
    dof rx ry rz
    limits (-160.0 20.0)
           (-70.0 70.0)
           (-60.0 70.0)
  end
  begin
     id 3 
     name ltibia
     direction 0.34192 -0.939729 0   
     length 5.55969   
     axis 0 0 20   XYZ
    dof rx
    limits (-10.0 170.0)
  end
  begin
     id 4 
     name lfoot
     direction 0.216943 -0.596046 0.773088   
     length 2.27918   
     axis -90 7.62852e-016 20   XYZ
    dof rx rz
    limits (-45.0 90.0)
           (-70.0 20.0)
  end
  begin
     id 5 
     name ltoes
     direction 1.53519e-011 -4.21748e-011 1   
     length 1.05562   
     axis -90 7.62852e-016 20   XYZ
    dof rx
    limits (-90.0 20.0)
  end
  begin
     id 6 
     name rhipjoint
     direction -0.576368 -0.719173 0.38806   
     length 2.1142  
     axis 0 0 0  XYZ 
  end
  begin
     id 7 
     name rfemur
     direction -0.34202 -0.939693 0   
     length 7.07928   
     axis 0 0 -20   XYZ
    dof rx ry rz
    limits (-160.0 20.0)
           (-70.0 70.0)
           (-70.0 60.0)
  end
  begin
     id 8 
     name rtibia
     direction -0.34202 -0.939693 0   
     length 5.79974   
     axis 0 0 -20   XYZ
    dof rx
    limits (-10.0 170.0)
 end
 begin
     id 9 
     name rfoot
     direction -0.189288 -0.520065 0.832888   
     length 2.42173  
     axis -90 -7.62852e-016 -20   XYZ
    dof rx rz
    limits (-45.0 90.0)
           (-20.0 70.0)
  end
  begin
     id 10 
     name rtoes
     direction -1.53574e-011 -4.21658e-011 1   
     length 1.14469   
     axis -90 -7.62852e-016 -20   XYZ
    dof rx
    limits (-90.0 20.0)
  end
  begin
     id 11 
     name lowerback
     direction -0.00135702 0.993803 0.111144   
     length 1.91308   
     axis 0 0 0   XYZ
    dof rx ry rz
    limits (-20.0 45.0)
           (-30.0 30.0)
           (-30.0 30.0)
  end
  begin
     id 12 
     name upperback
     direction -0.0056745 0.999813 0.0184631   
     length 1.9212   
     axis 0 0 0   XYZ
    dof rx ry rz
    limits (-20.0 45.0)
           (-30.0 30.0)
           (-30.0 30.0)
  end
  begin
     id 13 
     name thorax
     direction -0.00733434 0.999426 -0.0330788   
     length 1.94196   
     axis 0 0 0   XYZ
    dof rx ry rz
    limits (-20.0 45.0)
           (-30.0 30.0)
           (-30.0 30.0)
  end
  begin
     id 14 
     name lowerneck
     direction 0.0563074 0.996944 -0.0541571   
     length 2.34257   
     axis 0 0 0   XYZ
    dof rx ry rz
    limits (-20.0 45.0)
           (-30.0 30.0)
           (-30.0 30.0)
  end
  begin
     id 15 
     name upperneck
     direction -0.0544519 0.976166 -0.210085   
     length 2.32506   
     axis 0 0 0   XYZ
    dof rx ry rz
    limits (-20.0 45.0)
           (-30.0 30.0)
           (-30.0 30.0)
  end
  begin
     id 16
     name head
     direction -0.0226035 0.997615 -0.0652205  
     length 2.3648  
     axis 0 0 0   XYZ
    dof rx ry rz
    limits (-20.0 45.0)
           (-30.0 30.0)
           (-30.0 30.0)
  end
  begin
     id 17 
     name lclavicle
     direction 0.92109 0.381297 -0.0787716  
     length 4.0487  
     axis 0 0 0   XYZ
    dof ry rz
    limits (-20.0 10.0)
           (0.0 20.0)
  end
  begin
     id 18 
     name lhumerus
     direction 1 -4.48986e-011 3.56724e-027   
     length 4.94991   
     axis 180 -30 -90   XYZ
    dof rx ry rz
    limits (-60.0 90.0)
           (-90.0 90.0)
           (-90.0 90.0)
  end
  begin
     id 19
     name lradius
     direction 1 -4.48981e-011 8.62147e-027   
     length 2.7606   
     axis 180 -30 -90   XYZ
    dof rx
    limits (-10.0 170.0)
  end
  begin
     id 20
     name lwrist
     direction 1 -4.48989e-011 1.59799e-026   
     length 1.3803   
     axis -1.17785e-014 90 90   XYZ
    dof ry
    limits (-180.0 0.0)
 end
  begin
     id 21 
     name lhand
     direction 1 -4.48896e-011 3.19599e-026   
     length 0.843936   
     axis -2.03931e-014 90 90   XYZ
    dof rx rz
    limits (-90.0 90.0)
           (-45.0 45.0)
  end
  begin
     id 22 
     name lfingers
     direction 1 -4.48887e-011 6.39197e-026   
     length 0.680403   
     axis -4.07862e-014 90 90   XYZ
    dof rx
    limits (0.0 90.0)
  end
  begin
     id 23
     name lthumb
     direction 0.707107 -6.348e-011 0.707107   
     length 0.976926   
     axis -90 45 2.85299e-015   XYZ
    dof rx rz
    limits (-45.0 45.0)
           (-45.0 45.0)
  end
  begin
     id 24 
     name rclavicle
     direction -0.951104 0.307692 -0.026953   
     length 4.21801  
     axis 0 0 0   XYZ 
    dof ry rz
    limits (-10.0 20.0)
           (-20.0 0.0)
  end
  begin
     id 25 
     name rhumerus
     direction -1 -4.4896e-011 -1.8171e-018  
     length 4.32982   
     axis 180 30 90   XYZ
    dof rx ry rz
    limits (-90.0 60.0)
           (-90.0 90.0)
           (-90.0 90.0)
  end
  begin
     id 26 
     name rradius
     direction -1 -4.48959e-011 8.25165e-027   
     length 3.20057   
     axis 180 30 90   XYZ
    dof rx
    limits (-10.0 170.0)
  end
  begin
     id 27 
     name rwrist
     direction -1 -4.48997e-011 1.59799e-026   
     length 1.60029   
     axis -1.17785e-014 -90 -90   XYZ
    dof ry
    limits (-180.0 0.0)
  end
  begin
     id 28
     name rhand
     direction -1 -4.49023e-011 3.19599e-026   
     length 0.960433   
     axis -2.03931e-014 -90 -90   XYZ
    dof rx rz
    limits (-90.0 90.0)
           (-45.0 45.0)
  end
  begin
     id 29
     name rfingers
     direction -1 -4.48802e-011 6.39197e-026   
     length 0.774326   
     axis -4.07862e-014 -90 -90   XYZ
    dof rx
    limits (0.0 90.0)
  end
  begin
     id 30
     name rthumb
     direction -0.707107 -6.34876e-011 0.707107   
     length 1.11178   
     axis -90 -45 -2.85299e-015   XYZ
    dof rx rz
    limits (-45.0 45.0)
           (-45.0 45.0)
  end
:hierarchy
  begin
    root lhipjoint rhipjoint lowerback
    lhipjoint lfemur
    lfemur ltibia
    ltibia lfoot
    lfoot ltoes
    rhipjoint rfemur
    rfemur rtibia
    rtibia rfoot
    rfoot rtoes
    lowerback upperback
    upperback thorax
    thorax lowerneck lclavicle rclavicle
    lowerneck upperneck
    upperneck head
    lclavicle lhumerus
    lhumerus lradius
    lradius lwrist
    lwrist lhand lthumb
    lhand lfingers
    rclavicle rhumerus
    rhumerus rradius
    rradius rwrist
    rwrist rhand rthumb
    rhand rfingers
end

#!OML:ASF C:\KaitlinTest1\Natural Motions\Nikki\Session 2\Nikki.ASF
:FULLY-SPECIFIED
:DEGREES
423
root -18.8711 16.6293 5.06898 -155.7 85.7432 -165.653
lowerback -13.483 -1.70081 -0.176327
upperback -4.09082 -2.01667 -0.53716
thorax 3.23667 -0.921618 -0.778376
lowerneck -1.80554 1.57554 8.40108
upperneck 27.3778 3.84371 -5.57729
head 9.09825 2.53852 -2.99153
rclavicle 1.56046e-014 6.36111e-015
rhumerus -42.7158 -22.1596 -79.176
rradius 18.4822
rwrist 28.9071
rhand -35.9804 3.13772
rfingers 7.12502
rthumb -9.09089 -26.6464
lclavicle 1.56046e-014 6.36111e-015
lhumerus -42.4254 16.3956 80.2713
lradius 23.9681
lwrist -40.0553
lhand -32.9044 3.43781
lfingers 7.12502
lthumb -6.12192 33.3294
rfemur -7.7921 -16.9398 21.0095
rtibia 11.3451
rfoot -10.8751 12.0397
rtoes -1.43125e-014
lfemur -9.84766 11.9381 -17.9106
ltibia 9.55773
lfoot -2.06516 -16.7096
ltoes -4.92986e-014
424
root -18.8716 16.6289 5.06914 -155.326 85.7166 -165.288
lowerback -13.4922 -1.69876 -0.14303
upperback -4.08764 -2.01867 -0.530541
thorax 3.24399 -0.922579 -0.790872
lowerneck -1.81162 1.57347 8.38638
upperneck 27.3731 3.83622 -5.55848
head 9.09656 2.53491 -2.98295
rclavicle -2.47984e-014 -7.15625e-015
rhumerus -42.6984 -22.1592 -79.1889
rradius 18.4861
rwrist 28.8859
rhand -35.9531 3.09716
rfingers 7.12502
rthumb -9.06457 -26.6881
lclavicle -2.47984e-014 -7.15625e-015
lhumerus -42.412 16.442 80.2411
lradius 23.9668
lwrist -40.2035
lhand -32.8359 3.48461
lfingers 7.12502
lthumb -6.05577 33.3781
rfemur -7.7995 -16.9287 21.0534
rtibia 11.3349
rfoot -10.8537 12.0085
rtoes -1.24837e-013
lfemur -9.87178 11.9264 -17.8719
ltibia 9.56903
lfoot -2.03384 -16.7378
ltoes -1.01778e-013
425
root -18.8709 16.6298 5.06891 -155.388 85.7187 -165.361
lowerback -13.4998 -1.69636 -0.1526
upperback -4.09327 -2.01323 -0.542437
thorax 3.24218 -0.919727 -0.797138
lowerneck -1.81464 1.56699 8.44631
upperneck 27.3786 3.83144 -5.6004
head 9.1005 2.53485 -3.00845
rclavicle 1.54058e-015 -5.1684e-015
rhumerus -42.7165 -22.2678 -79.1298
rradius 18.4427
rwrist 29.0171
rhand -36.0082 3.16188
rfingers 7.12502
rthumb -9.1177 -26.621
lclavicle 1.54058e-015 -5.1684e-015
lhumerus -42.4026 16.3281 80.2984
lradius 23.9822
lwrist -40.0017
lhand -32.8663 3.45298
lfingers 7.12502
lthumb -6.08512 33.3456
rfemur -7.81802 -16.921 21.0415
rtibia 11.3379
rfoot -10.8298 12.0212
rtoes 7.95139e-016
lfemur -9.87997 11.9258 -17.8836
ltibia 9.56508
lfoot -2.03193 -16.7276
ltoes -1.90833e-014
426
root -18.8709 16.63 5.06985 -155.303 85.6891 -165.267
lowerback -13.4866 -1.69867 -0.151657
upperback -4.09065 -2.01725 -0.531407
thorax 3.23808 -0.921836 -0.786464
lowerneck -1.79662 1.5673 8.41715
upperneck 27.356 3.82789 -5.5727
head 9.0879 2.53268 -2.99393
rclavicle -1.85118e-014 -1.98785e-015
rhumerus -42.7259 -22.2521 -79.1142
rradius 18.4544
rwrist 29.0624
rhand -35.979 3.11715
rfingers 7.12502
rthumb -9.08959 -26.667
lclavicle -1.85118e-014 -1.98785e-015
lhumerus -42.4035 16.347 80.3051
lradius 23.9531
lwrist -40.0461
lhand -32.9904 3.43699
lfingers 7.12502
lthumb -6.20494 33.3261
rfemur -7.79254 -16.8939 21.0589
rtibia 11.3266
rfoot -10.8325 11.9732
rtoes 1.59028e-014
lfemur -9.87103 11.9034 -17.8526
ltibia 9.56626
lfoot -2.02916 -16.7344
ltoes -6.36111e-015
427
root -18.8703 16.6299 5.07038 -155.556 85.7152 -165.519
lowerback -13.4791 -1.70164 -0.192232
upperback -4.09815 -2.01553 -0.531906
thorax 3.22765 -0.92092 -0.763502
lowerneck -1.79196 1.57388 8.43827
upperneck 27.3709 3.8456 -5.60422
head 9.09456 2.54096 -3.00727
rclavicle 1.41883e-014 5.1684e-015
rhumerus -42.712 -22.1046 -79.2009
rradius 18.4927
rwrist 28.8709
rhand -35.9348 3.0883
rfingers 7.12502
rthumb -9.04691 -26.6977
lclavicle 1.41883e-014 5.1684e-015
lhumerus -42.4123 16.3769 80.3028
lradius 23.977
lwrist -39.9308
lhand -33.0128 3.39632
lfingers 7.12502
lthumb -6.22656 33.2848
rfemur -7.79691 -16.8566 21.0245
rtibia 11.3462
rfoot -10.8463 11.949
rtoes -3.26007e-014
lfemur -9.84496 11.9187 -17.8832
ltibia 9.52583
lfoot -2.01117 -16.7374
ltoes -7.95139e-015
428
root -18.8711 16.6314 5.07087 -155.901 85.6887 -165.869
lowerback -13.4787 -1.71117 -0.212323
upperback -4.09459 -2.0251 -0.541274
thorax 3.23141 -0.925696 -0.76354
lowerneck -1.81871 1.57082 8.42692
upperneck 27.3959 3.83427 -5.574
head 9.10694 2.5374 -2.9957
rclavicle 4.34841e-015 4.37326e-015
rhumerus -42.7208 -22.1514 -79.1734
rradius 18.4729
rwrist 28.9388
rhand -35.9669 3.18223
rfingers 7.12502
rthumb -9.07788 -26.6024
lclavicle 4.34841e-015 4.37326e-015
lhumerus -42.3967 16.3777 80.2781
lradius 23.9589
lwrist -40.0713
lhand -33.032 3.38647
lfingers 7.12502
lthumb -6.24515 33.2744
rfemur -7.79386 -16.8255 21.0117
rtibia 11.3345
rfoot -10.8151 11.8779
rtoes 8.11041e-014
lfemur -9.87676 11.8839 -17.8976
ltibia 9.5319
lfoot -1.99554 -16.7251
ltoes 2.54444e-014
429
root -18.871 16.6287 5.07093 -155.538 85.6723 -165.481
lowerback -13.4603 -1.70651 -0.181396
upperback -4.0762 -2.02441 -0.538818
thorax 3.23972 -0.92581 -0.778088
lowerneck -1.85203 1.56943 8.41809
upperneck 27.4121 3.8257 -5.55435
head 9.11781 2.53378 -2.9879
rclavicle 3.97569e-016 9.14409e-015
rhumerus -42.6995 -22.1426 -79.2034
rradius 18.4941
rwrist 28.9627
rhand -35.9639 3.16881
rfingers 7.12502
rthumb -9.07497 -26.616
lclavicle 3.97569e-016 9.14409e-015
lhumerus -42.3452 16.2352 80.3896
lradius 23.9769
lwrist -39.7213
lhand -33.0597 3.45248
lfingers 7.12502
lthumb -6.27181 33.3396
rfemur -7.76449 -16.8729 21.0423
rtibia 11.327
rfoot -10.8405 11.9305
rtoes 3.97569e-014
lfemur -9.81958 11.8816 -17.8502
ltibia 9.53107
lfoot -2.01122 -16.7275
ltoes 3.02153e-014
430
root -18.871 16.6306 5.07055 -155.502 85.6683 -165.46
lowerback -13.4609 -1.70759 -0.182981
upperback -4.09021 -2.02535 -0.530432
thorax 3.22571 -0.92602 -0.768342
lowerneck -1.83147 1.55999 8.41641
upperneck 27.4016 3.82216 -5.58633
head 9.11014 2.52935 -2.99919
rclavicle 3.27995e-015 1.98785e-015
rhumerus -42.6821 -22.0127 -79.2939
rradius 18.5288
rwrist 28.7481
rhand -35.9101 2.95847
rfingers 7.12502
rthumb -9.02309 -26.8285
lclavicle 3.27995e-015 1.98785e-015
lhumerus -42.3898 16.3228 80.3171
lradius 23.9664
lwrist -40.0781
lhand -33.038 3.44389
lfingers 7.12502
lthumb -6.25087 33.3317
rfemur -7.77616 -16.8495 21.0498
rtibia 11.3203
rfoot -10.8219 11.9081
rtoes 5.24792e-014
lfemur -9.85635 11.8777 -17.8588
ltibia 9.53133
lfoot -1.99678 -16.7411
ltoes 3.49861e-014
431
root -18.8691 16.6294 5.06999 -155.357 85.6624 -165.304
lowerback -13.4684 -1.70939 -0.167034
upperback -4.08385 -2.03011 -0.528106
thorax 3.23592 -0.928436 -0.776003
lowerneck -1.85522 1.56614 8.42598
upperneck 27.4324 3.8338 -5.59906
head 9.12684 2.53499 -3.00439
rclavicle -1.00386e-014 1.98785e-015
rhumerus -42.6748 -22.1498 -79.1911
rradius 18.4419
rwrist 28.9337
rhand -35.9891 3.13152
rfingers 7.12502
rthumb -9.09929 -26.6522
lclavicle -1.00386e-014 1.98785e-015
lhumerus -42.3736 16.3009 80.3297
lradius 23.9625
lwrist -39.9624
lhand -33.1222 3.39944
lfingers 7.12502
lthumb -6.3322 33.2848
rfemur -7.75155 -16.861 21.055
rtibia 11.3138
rfoot -10.8226 11.9107
rtoes -1.12115e-013
lfemur -9.82966 11.8771 -17.8419
ltibia 9.53698
lfoot -2.03908 -16.7277
ltoes -5.24792e-014
432
root -18.8694 16.6298 5.07026 -155.623 85.663 -165.586
lowerback -13.4921 -1.71233 -0.192499
upperback -4.0812 -2.02958 -0.541954
thorax 3.2519 -0.928031 -0.776787
lowerneck -1.83629 1.56804 8.44534
upperneck 27.3966 3.82906 -5.58601
head 9.11059 2.53505 -3.00341
rclavicle 1.4561e-014 5.56597e-015
rhumerus -42.6631 -22.0857 -79.271
rradius 18.4779
rwrist 28.784
rhand -36.015 3.17573
rfingers 7.12502
rthumb -9.12427 -26.6069
lclavicle 1.4561e-014 5.56597e-015
lhumerus -42.3454 16.2762 80.3277
lradius 23.9241
lwrist -39.9627
lhand -33.1731 3.39718
lfingers 7.12502
lthumb -6.38131 33.2811
rfemur -7.76284 -16.8431 21.0403
rtibia 11.2984
rfoot -10.8145 11.8901
rtoes -1.59028e-014
lfemur -9.86054 11.8696 -17.8636
ltibia 9.55554
lfoot -2.05243 -16.7258
ltoes -4.77083e-015
433
root -18.87 16.6305 5.07036 -155.555 85.6511 -165.543
lowerback -13.5009 -1.7086 -0.181543
upperback -4.09791 -2.02505 -0.543618
thorax 3.2388 -0.925419 -0.783901
lowerneck -1.81432 1.55661 8.45132
upperneck 27.3888 3.81815 -5.60098
head 9.10306 2.52969 -3.01073
rclavicle 8.87077e-015 -7.15625e-015
rhumerus -42.6969 -22.0518 -79.2704
rradius 18.4994
rwrist 28.8111
rhand -36.0146 3.13132
rfingers 7.12502
rthumb -9.12391 -26.6513
lclavicle 8.87077e-015 -7.15625e-015
lhumerus -42.3649 16.2984 80.3123
lradius 23.9327
lwrist -39.9912
lhand -33.1425 3.40011
lfingers 7.12502
lthumb -6.35176 33.2849
rfemur -7.79777 -16.8762 21.0553
rtibia 11.3081
rfoot -10.8333 11.9251
rtoes 4.85035e-014
lfemur -9.88801 11.8611 -17.8611
ltibia 9.54443
lfoot -2.01674 -16.7449
ltoes 1.59028e-015
434
root -18.8699 16.6301 5.07047 -156.072 85.6725 -166.036
lowerback -13.4703 -1.71293 -0.229775
upperback -4.09483 -2.02462 -0.55334
thorax 3.22678 -0.92549 -0.765959
lowerneck -1.82564 1.56097 8.46586
upperneck 27.4055 3.82812 -5.61951
head 9.11246 2.53439 -3.01894
rclavicle -6.31141e-015 -1.19271e-015
rhumerus -42.6911 -22.0263 -79.2783
rradius 18.5009
rwrist 28.7939
rhand -35.9758 3.12488
rfingers 7.12502
rthumb -9.08645 -26.6594
lclavicle -6.31141e-015 -1.19271e-015
lhumerus -42.3563 16.2395 80.3507
lradius 23.9398
lwrist -39.8282
lhand -33.1605 3.42549
lfingers 7.12502
lthumb -6.36912 33.3097
rfemur -7.77355 -16.895 21.0001
rtibia 11.3173
rfoot -10.8386 11.9433
rtoes -1.1609e-013
lfemur -9.85399 11.8631 -17.9053
ltibia 9.53998
lfoot -2.0413 -16.7297
ltoes -3.97569e-014
435
root -18.8687 16.6298 5.07017 -155.584 85.6653 -165.552
lowerback -13.4913 -1.71143 -0.189729
upperback -4.09536 -2.02813 -0.541346
thorax 3.23662 -0.927073 -0.777178
lowerneck -1.81514 1.56538 8.4566
upperneck 27.4067 3.83823 -5.62436
head 9.11159 2.53816 -3.01826
rclavicle -6.70898e-016 -6.36111e-015
rhumerus -42.7127 -22.0971 -79.1992
rradius 18.4739
rwrist 28.9952
rhand -35.9825 3.16909
rfingers 7.12502
rthumb -9.09288 -26.6149
lclavicle -6.70898e-016 -6.36111e-015
lhumerus -42.377 16.3044 80.3039
lradius 23.9544
lwrist -39.939
lhand -33.1216 3.42276
lfingers 7.12502
lthumb -6.33161 33.3081
rfemur -7.76932 -16.8943 21.0398
rtibia 11.3032
rfoot -10.8224 11.947
rtoes 4.6118e-014
lfemur -9.86491 11.8725 -17.8653
ltibia 9.56311
lfoot -2.06701 -16.7293
ltoes -1.43125e-014
436
root -18.8685 16.6295 5.07012 -155.638 85.6666 -165.592
lowerback -13.472 -1.71125 -0.194313
upperback -4.09404 -2.02778 -0.540268
thorax 3.22772 -0.92707 -0.772862
lowerneck -1.82279 1.57118 8.43062
upperneck 27.4147 3.84508 -5.60714
head 9.11562 2.5405 -3.00713
rclavicle 8.32411e-015 -1.59028e-015
rhumerus -42.7072 -22.0657 -79.2113
rradius 18.4886
rwrist 28.9642
rhand -35.957 3.06905
rfingers 7.12502
rthumb -9.06829 -26.716
lclavicle 8.32411e-015 -1.59028e-015
lhumerus -42.3915 16.3495 80.2778
lradius 23.9536
lwrist -40.0054
lhand -33.0851 3.39599
lfingers 7.12502
lthumb -6.29638 33.2824
rfemur -7.7493 -16.895 21.0327
rtibia 11.2931
rfoot -10.8264 11.943
rtoes 1.19271e-014
lfemur -9.85745 11.8723 -17.8642
ltibia 9.5799
lfoot -2.06493 -16.7217
ltoes -3.97569e-014
